<svg width="551" height="84" viewBox="0 0 551 84" fill="none" xmlns="http://www.w3.org/2000/svg">
<path d="M215.264 32.268C215.264 34.3986 216.054 35.945 217.635 36.9072C219.216 38.0756 222.583 39.2783 227.738 40.5155C233.167 41.8213 237.119 43.6082 239.594 45.8763C242.137 48.1443 243.408 51.4089 243.408 55.6701C243.408 60.1375 241.724 63.7457 238.356 66.4948C235.057 69.244 230.728 70.6186 225.367 70.6186C217.6 70.6186 210.59 67.8694 204.336 62.3711L209.697 55.9794C214.92 60.4467 220.212 62.6804 225.573 62.6804C228.253 62.6804 230.418 62.0962 232.068 60.9278C233.717 59.6907 234.542 58.11 234.542 56.1856C234.542 54.2612 233.786 52.7491 232.274 51.6495C230.831 50.5498 228.219 49.5533 224.439 48.6598C217.91 47.1478 213.374 45.3608 210.831 43.299C207.875 41.0309 206.398 37.5601 206.398 32.8866C206.398 28.3505 208.047 24.811 211.346 22.268C214.645 19.6564 218.872 18.3505 224.027 18.3505C230.968 18.3505 236.913 20.378 241.862 24.433L237.326 30.8247C235.813 29.4502 233.786 28.3505 231.243 27.5258C228.7 26.6323 226.191 26.1856 223.717 26.1856C221.174 26.1856 219.112 26.7354 217.532 27.8351C216.02 28.866 215.264 30.3436 215.264 32.268ZM279.637 31.6495H287.782V70H279.637V62.9897C278.332 65.3265 276.51 67.1821 274.174 68.5567C271.905 69.9313 269.466 70.6186 266.854 70.6186C262.455 70.6186 258.95 69.2784 256.338 66.5979C253.727 63.9175 252.421 60.1031 252.421 55.1546V31.6495H260.462V52.6804C260.462 59.7594 263.383 63.299 269.225 63.299C272.18 63.299 274.655 62.3368 276.648 60.4124C278.641 58.488 279.637 55.8076 279.637 52.3711V31.6495ZM338.694 50.6186C338.694 56.3918 336.907 61.1684 333.333 64.9485C329.759 68.7285 325.498 70.6186 320.549 70.6186C315.67 70.6186 311.305 68.488 307.457 64.2268V70H299.415V16.4948H307.457V38.3505C310.687 33.4708 314.845 31.0309 319.931 31.0309C325.223 31.0309 329.656 32.8522 333.23 36.4948C336.872 40.1375 338.694 44.8454 338.694 50.6186ZM318.694 63.4021C321.993 63.4021 324.776 62.2337 327.044 59.8969C329.381 57.4914 330.549 54.4674 330.549 50.8247C330.549 47.1821 329.381 44.1581 327.044 41.7526C324.776 39.3471 322.027 38.1443 318.797 38.1443C315.567 38.1443 312.852 39.3814 310.652 41.8557C308.453 44.2612 307.353 47.2509 307.353 50.8247C307.353 54.4674 308.453 57.4914 310.652 59.8969C312.852 62.2337 315.532 63.4021 318.694 63.4021ZM386.203 56.0825L391.667 61.6495C386.444 67.6289 379.983 70.6186 372.286 70.6186C364.657 70.6186 358.3 68.1787 353.214 63.299C348.196 58.3505 345.688 52.1306 345.688 44.6392C345.688 37.079 348.265 30.8247 353.42 25.8763C358.575 20.8591 365.069 18.3505 372.904 18.3505C380.602 18.3505 387.097 21.2371 392.389 27.0103L387.028 32.8866C384.623 30.5498 382.355 28.9347 380.224 28.0412C378.093 27.1478 375.585 26.701 372.698 26.701C367.544 26.701 363.214 28.3505 359.709 31.6495C356.272 34.9485 354.554 39.1409 354.554 44.2268C354.554 49.244 356.272 53.5052 359.709 57.0103C363.145 60.5155 367.234 62.268 371.977 62.268C374.863 62.268 377.337 61.7869 379.399 60.8247C381.53 59.8625 383.798 58.2818 386.203 56.0825ZM409.019 70H400.978V16.4948H409.019V70ZM456.472 54.3299H426.369C426.575 57.079 427.847 59.3127 430.184 61.0309C432.52 62.7491 435.235 63.6082 438.328 63.6082C443.208 63.6082 446.85 62.0962 449.256 59.0722L453.895 64.1237C449.771 68.4536 444.376 70.6186 437.709 70.6186C432.211 70.6186 427.606 68.7973 423.895 65.1546C420.184 61.512 418.328 56.701 418.328 50.7216C418.328 44.8797 420.218 40.1375 423.998 36.4948C427.778 32.8522 432.348 31.0309 437.709 31.0309C443.07 31.0309 447.537 32.646 451.111 35.8763C454.685 39.1065 456.472 43.4021 456.472 48.7629V54.3299ZM448.431 47.9381C448.431 44.8454 447.434 42.4055 445.441 40.6186C443.517 38.8316 441.008 37.9381 437.915 37.9381C434.823 37.9381 432.108 38.866 429.771 40.7216C427.503 42.5773 426.369 44.9828 426.369 47.9381H448.431ZM496.462 70H489.142V64.8454C485.912 68.6942 481.651 70.6186 476.359 70.6186C472.304 70.6186 468.97 69.4845 466.359 67.2165C463.816 64.8797 462.544 61.8557 462.544 58.1443C462.544 54.433 463.919 51.6151 466.668 49.6907C469.417 47.7663 473.197 46.8041 478.008 46.8041H488.524V45.3608C488.524 40.2749 485.672 37.732 479.967 37.732C476.393 37.732 472.682 39.0378 468.833 41.6495L465.225 36.5979C469.967 32.8866 475.259 31.0309 481.101 31.0309C485.843 31.0309 489.589 32.2337 492.338 34.6392C495.087 36.9759 496.462 40.5155 496.462 45.2577V70ZM488.421 52.4742H479.349C473.507 52.4742 470.586 54.2955 470.586 57.9381C470.586 59.7938 471.307 61.2371 472.751 62.268C474.194 63.2302 476.221 63.7113 478.833 63.7113C481.513 63.7113 483.781 62.9897 485.637 61.5464C487.493 60.0344 488.421 58.0756 488.421 55.6701V52.4742ZM515.855 53.5052V70H507.814V31.6495H515.855V39.2784C517.161 36.8729 518.913 34.9141 521.113 33.4021C523.381 31.89 525.752 31.0997 528.226 31.0309L528.329 39.1753H527.917C523.999 39.1753 521.01 40.4467 518.948 42.9897C516.886 45.5326 515.855 49.0378 515.855 53.5052Z" fill="#1B2B45" style="fill:#1B2B45;fill:color(display-p3 0.1057 0.1695 0.2721);fill-opacity:1;"/>
<path d="M171.705 8H181L146.711 82.6728H121.461L171.705 8Z" fill="#146033" style="fill:#146033;fill:color(display-p3 0.0795 0.3760 0.1981);fill-opacity:1;"/>
<path d="M105.357 8H119.079L0 79.1588V61.3867L105.357 8Z" fill="#146033" style="fill:#146033;fill:color(display-p3 0.0795 0.3760 0.1981);fill-opacity:1;"/>
<path d="M39.5419 60.4144H136.484L126.819 74.7663L17.0149 74.8169L39.5419 60.4144Z" fill="#1B2B45" style="fill:#1B2B45;fill:color(display-p3 0.1057 0.1695 0.2721);fill-opacity:1;"/>
<path d="M109.797 16.098H166.291L160.407 24.8268H96.3922L109.797 16.098Z" fill="#1B2B45" style="fill:#1B2B45;fill:color(display-p3 0.1057 0.1695 0.2721);fill-opacity:1;"/>
<path d="M77.4717 36.4102H152.634L145.582 46.8847H59.3252L77.4717 36.4102Z" fill="#1B2B45" style="fill:#1B2B45;fill:color(display-p3 0.1057 0.1695 0.2721);fill-opacity:1;"/>
</svg>
